<?xml version="1.0" encoding="utf-8"?>
<!-- Generator: Adobe Illustrator 16.0.0, SVG Export Plug-In . SVG Version: 6.00 Build 0)  -->
<!DOCTYPE svg PUBLIC "-//W3C//DTD SVG 1.1//EN" "http://www.w3.org/Graphics/SVG/1.1/DTD/svg11.dtd">
<svg version="1.1" xmlns="http://www.w3.org/2000/svg" xmlns:xlink="http://www.w3.org/1999/xlink" x="0px" y="0px" width="480px"
	 height="480px" viewBox="0 0 480 480" enable-background="new 0 0 480 480" xml:space="preserve">
<g id="Ellipse_4_copy_3_1_" enable-background="new    ">
</g>
<g id="Ellipse_4_1_" enable-background="new    ">
	<circle fill="none" stroke="#563215" stroke-width="17" stroke-miterlimit="10" cx="245.703" cy="230.002" r="151.686"/>
	<circle fill="none" stroke="#AC6528" stroke-width="5" stroke-miterlimit="10" cx="245.177" cy="229.291" r="166.755"/>
</g>
<g id="Shape_1_copy_24_1_" enable-background="new    ">
	<g id="Shape_1_copy_24">
		<g>
			<path fill-rule="evenodd" clip-rule="evenodd" fill="#BB7026" d="M230.006,307.12c0.058,0.015,0.565,0.305,3.743,5.626
				c2.834,4.744,3.327,10.241,2.813,15.004c-0.861,7.986-5.134,17.31-17.815,22.508c-4.522,1.854-11.648,3.019-18.753,2.813
				c-7.577-0.22-15.003-1.876-15.003-1.876s7.901,7.036,26.255,11.254c11.241,2.583,24.567,3.897,31.881,3.751
				c54.42-1.089,82.465-25.225,92.355-36.068c2.885-3.163,4.225-5.194,4.225-5.194L230.006,307.12z"/>
		</g>
	</g>
</g>
<g id="Shape_1_copy_28_1_" enable-background="new    ">
	<g id="Shape_1_copy_28">
		<g>
			<path fill-rule="evenodd" clip-rule="evenodd" fill="#AC6528" d="M337.777,291.386c-3.358-7.691-11.297-23.379-34.897-36.025
				l-11.52,2.399c0,0-8.803-5.434-16.801-7.2c-7.998-1.766-11.684-2.135-14.88-1.92c-5.354,0.361-9.871,2.842-11.04,5.28
				c-2.362,4.929,0.48,8.16,0.48,8.16s-1.449-1.828,1.92-6.24c1.676-2.195,6.506-3.188,9.6-2.399
				c3.568,0.908,6.263,3.813,7.681,6.239c2.979,5.1,0.669,12.51-6.24,16.801c-3.726,2.313-9.538,2.757-13.92,2.399
				c-3.571-0.291-6.72-1.439-6.72-1.439s0.483,1.595,2.638,3.071c8.586,5.887,19.952,2.433,19.952,2.433l75.336,12.732
				C339.366,295.677,338.948,294.067,337.777,291.386z"/>
		</g>
	</g>
</g>
<g id="Shape_1_copy_29_1_" enable-background="new    ">
	<g id="Shape_1_copy_29">
		<g>
			<path fill-rule="evenodd" clip-rule="evenodd" fill="#D7AB24" d="M284.913,245.789c-4.941-1.797-9.836-3.175-18.086-4.031
				c-13.47-1.397-22.709,3.173-22.709,3.173s-10.341,5.712-10.012,18.46c0.527,2.886,1.835,5.543,3.695,7.879
				c4.307,5.415,14.904,7.834,21.858,3.505c6.953-4.328,8.02-8.874,5.714-14.025c-2.049-4.578-9.691-7.4-13.562-1.528
				c-3.613,5.48,3.248,8.082,3.248,8.082s-8.714,1.354-9.632-7.721c-0.329-3.255,0.158-5.379,2.457-7.697
				c2.298-2.318,5.924-3.521,8.956-4.23c3.031-0.709,8.842-0.721,16.891,1.061c8.05,1.781,17.591,6.549,17.591,6.549l10.22-2.021
				C301.542,253.242,291.099,248.039,284.913,245.789z"/>
		</g>
	</g>
</g>
<g id="Shape_1_copy_22_1_" enable-background="new    ">
	<g id="Shape_1_copy_22">
		<g>
			<path fill-rule="evenodd" clip-rule="evenodd" fill="#966930" d="M194.605,295.242c-5.632-3.135-13.885-8.741-17.959-11.56
				c-0.003,1.662,0.116,10.626,2.843,20.505c1.519,5.507,3.747,11.4,7.35,16.333c1.035,1.416,2.294,2.647,3.46,3.979
				c1.518,1.735,4.58,3.34,4.58,3.34s-2.517-5.003-3.032-7.071c-0.686-2.752-0.68-5.752-0.328-7.809
				c0.522-3.055,2.719-6.474,6.24-8.64c4.689-2.886,11.047-2.502,11.047-2.502S201.468,299.063,194.605,295.242z"/>
		</g>
	</g>
</g>
<g id="Shape_1_copy_23_1_" enable-background="new    ">
	<g id="Shape_1_copy_23">
		<g>
			<path fill-rule="evenodd" clip-rule="evenodd" fill="#DAAF22" d="M222.498,309.933c-9.846-5.158-19.914-3.403-24.38,2.813
				c-3.968,5.523-2.042,16.378,7.501,16.88c8.908,0.469,11.252-4.688,11.252-4.688s-1.635,6.439-7.501,8.439
				c-3.736,1.274-10.828,0.405-15.003-1.875c-10.524-5.748-15.968-16.889-18.782-27.107c-3.193-11.591-3.001-21.996-3.001-21.996
				s-18.381-15.005-26.976-24.045c-33.641-35.381-24.662-74.981-23.547-79.314c-1.446,5.017-16.858,57.37,7.263,107.467
				c6.79,14.102,17.889,31.352,35.038,45.934c10.527,8.951,22.958,15.176,35.148,15.176c12.19,0,23.315-2.558,28.614-11.425
				C230.969,331.429,232.343,315.091,222.498,309.933z M122.061,179.039c0.076-0.265,0.115-0.403,0.106-0.397
				C122.167,178.642,122.126,178.782,122.061,179.039z"/>
		</g>
	</g>
</g>
<g id="Shape_7_1_" enable-background="new    ">
	<g id="Shape_7">
		<g>
			<path fill-rule="evenodd" clip-rule="evenodd" fill="#925B2A" d="M292.822,112.997c-22.533-2.745-55.323,11.253-55.323,11.253
				s-22.503-17.818-59.073-5.626c-33.497,11.167-52.8,55.969-51.571,75.961c1.117,18.188,6.365,45.504,36.569,69.396
				c14.017,11.088,31.337,22.709,37.23,25.445c59.558,27.652,28.406-5.751,28.406-5.751l-5.625-6.564
				c0.13,0.199-48.682-46.644-54.801-84.835c-4.601-28.721,20.437-46.921,37.657-49.125c39.036-4.997,52.714,25.295,52.775,25.176
				c0,0-0.021,0.092-0.063,0.261c5.118-9.064,16.445-17.092,21.629-19.955c9.124-5.038,26.505-13.44,30.006-18.756
				C318.715,117.613,297.348,113.547,292.822,112.997z"/>
		</g>
	</g>
</g>
<g id="Shape_7_copy_1_" enable-background="new    ">
	<g id="Shape_7_copy">
		<g>
			<path fill-rule="evenodd" clip-rule="evenodd" fill="#E6C77B" d="M207.879,146.912c-15.807,2.013-38.789,18.639-34.565,44.874
				c5.616,34.888,50.421,77.677,50.301,77.495c0,0-14.205-23.66-12.05-39.406c2.24-16.364,11.002-19.338,16.354-23.129
				c9.509-6.737,16-12.648,19.795-17.99c6.34-8.921,8.607-18.846,8.607-18.846C256.265,170.018,243.71,142.347,207.879,146.912z"/>
		</g>
	</g>
</g>
<g id="KSL_UNG_1_" enable-background="new    ">
	<g id="KSL_UNG">
		<g>
			<path fill-rule="evenodd" clip-rule="evenodd" fill="#8D4708" d="M317.836,186.203l-6.557-16.249l6.471-12.495h-6.171
				l-3.856,9.211c-0.472,1.237-0.943,2.517-1.415,3.71h-0.085v-12.922h-5.613v28.744h5.613v-9.553l1.285-2.346l4.199,11.899H317.836
				z M328.677,169.528c-3.129-1.876-3.985-2.772-3.985-4.478c0-1.536,1.157-2.985,3.557-2.985c1.629,0,2.871,0.469,3.686,0.981
				l0.899-4.819c-0.856-0.512-2.657-1.024-4.542-1.024c-6.042,0-9.128,3.839-9.128,8.444c0,2.602,1.5,5.629,5.442,8.018
				c2.442,1.578,3.729,2.602,3.729,4.691c0,1.876-1.286,3.241-3.942,3.241c-1.629,0-3.6-0.469-4.757-1.109l-0.814,4.819
				c0.943,0.555,3.214,1.152,5.528,1.152c5.656,0,9.556-3.455,9.556-8.7C333.904,174.73,332.49,171.831,328.677,169.528z
				 M342.774,181.469v-24.01h-5.614v28.744h13.028v-4.734H342.774z M300.652,221.074c0,4.35-1.156,5.501-2.785,5.501
				c-1.457,0-2.742-1.279-2.742-5.501v-18.68h-5.614v17.741c0,7.208,2.356,11.344,8.399,11.344c5.57,0,8.356-4.009,8.356-11.387
				v-17.699h-5.614V221.074z M323.32,208.749c0,5.289,0.387,10.278,0.558,13.306h-0.086c-0.813-2.474-2.229-6.184-3.085-8.401
				l-4.457-11.259h-5.142v28.744h4.928v-6.482c0-5.757-0.215-10.192-0.344-13.092h0.086c0.644,2.602,1.972,6.226,2.914,8.657
				l4.414,10.917h5.143v-28.744h-4.929V208.749z M341.489,219.581h2.571v6.952c-0.215,0.085-0.6,0.128-1.114,0.128
				c-2.614,0-5.313-2.474-5.313-9.382c0-7.506,3.042-10.108,6.856-10.108c1.414,0,2.485,0.213,3.3,0.64l0.985-4.819
				c-0.9-0.427-2.528-0.853-4.714-0.853c-6.128,0-12.127,4.35-12.256,14.799c-0.086,4.947,1.242,9.211,3.728,11.6
				c1.929,1.919,4.414,2.857,7.714,2.857c2.1,0,4.757-0.512,5.999-1.023v-15.353h-7.756V219.581z"/>
		</g>
	</g>
</g>
</svg>
